<svg xmlns="http://www.w3.org/2000/svg" width="16.104" height="21.001" viewBox="0 0 16.104 21.001">
  <path id="da086273b974cb595139babd4da17772" d="M21.464,10.823l-.338,10.238a3.372,3.372,0,0,1-3.382,3.261H11.317a3.372,3.372,0,0,1-3.382-3.258L7.6,10.823a.846.846,0,0,1,1.691-.056l.338,10.24a1.691,1.691,0,0,0,1.691,1.626h6.427A1.691,1.691,0,0,0,19.434,21l.338-10.237a.846.846,0,0,1,1.691.056Zm1.119-3.407a.846.846,0,0,1-.846.846H7.324a.846.846,0,0,1,0-1.691H9.945A1.079,1.079,0,0,0,11.021,5.6a2.529,2.529,0,0,1,2.523-2.278h1.97A2.529,2.529,0,0,1,18.038,5.6a1.079,1.079,0,0,0,1.076.971h2.621a.846.846,0,0,1,.846.846ZM12.489,6.571h4.083a2.791,2.791,0,0,1-.216-.8.846.846,0,0,0-.841-.761h-1.97a.846.846,0,0,0-.841.761,2.791,2.791,0,0,1-.216.8Zm.852,12.812v-7.2a.846.846,0,1,0-1.691,0v7.2a.846.846,0,1,0,1.691,0Zm4.071,0v-7.2a.846.846,0,1,0-1.691,0v7.2a.846.846,0,0,0,1.691,0Z" transform="translate(-6.478 -3.322)"/>
</svg>
