<svg xmlns="http://www.w3.org/2000/svg" width="21.505" height="21.501" viewBox="0 0 21.505 21.501">
  <path id="_28376c39e853b540e71ae5496dabc234" data-name="28376c39e853b540e71ae5496dabc234" d="M21.474,3.528a5.222,5.222,0,0,0-7.378,0L12.132,5.493,3.29,14.335a1.048,1.048,0,0,0-.3.593L2.011,21.8A1.05,1.05,0,0,0,3.05,23a1.031,1.031,0,0,0,.149-.011l6.876-.982a1.053,1.053,0,0,0,.593-.3L21.475,10.907a5.218,5.218,0,0,0,0-7.379ZM9.432,19.98l-5.144.735.735-5.144L12.874,7.72l4.408,4.409ZM19.989,9.422l-1.221,1.222L14.358,6.235,15.58,5.013a3.192,3.192,0,0,1,4.408,0,3.119,3.119,0,0,1,0,4.411Z" transform="translate(-1.748 -1.752)" stroke="#f5f5f5" stroke-width="0.5"/>
</svg>
