<svg xmlns="http://www.w3.org/2000/svg" width="23.874" height="23.877" viewBox="0 0 23.874 23.877">
  <path id="paper-plane_1_" data-name="paper-plane (1)" d="M23,.877a2.951,2.951,0,0,0-2.786-.8L4.3,3.434a4.969,4.969,0,0,0-2.838,8.438L3.168,13.58a1,1,0,0,1,.291.7v3.152a2.95,2.95,0,0,0,.3,1.278l-.008.007.026.026A2.985,2.985,0,0,0,5.131,20.1l.026.026.007-.008a2.95,2.95,0,0,0,1.278.3H9.594a1,1,0,0,1,.7.291l1.708,1.708a4.938,4.938,0,0,0,3.5,1.465,5.023,5.023,0,0,0,1.6-.263,4.908,4.908,0,0,0,3.327-3.966L23.789,3.7A2.96,2.96,0,0,0,23,.877ZM4.576,12.175l-1.71-1.708a2.925,2.925,0,0,1-.718-3.058A2.963,2.963,0,0,1,4.635,5.393l15.76-3.318L5.447,17.025V14.284A2.963,2.963,0,0,0,4.576,12.175Zm13.9,7.133a2.985,2.985,0,0,1-5.063,1.7L11.7,19.3a2.963,2.963,0,0,0-2.108-.873H6.853L21.8,3.482Z" transform="translate(-0.003 -0.001)" fill="#fff"/>
</svg>
